<svg viewBox="0 0 900 380" xmlns="http://www.w3.org/2000/svg" font-family="Helvetica, Arial, sans-serif">
  <defs>
    <marker id="arrow2" viewBox="0 0 10 10" refX="9" refY="5" markerWidth="7" markerHeight="7" orient="auto-start-reverse">
      <path d="M0,0 L10,5 L0,10 z" fill="#6c757d"/>
    </marker>
  </defs>

  <rect x="250" y="10" width="400" height="55" rx="10" fill="#fff" stroke="#212529" stroke-width="2"/>
  <text x="450" y="33" text-anchor="middle" font-size="12" fill="#212529">"Arthur's Magazine (1844-1846) was ... published</text>
  <text x="450" y="50" text-anchor="middle" font-size="12" fill="#212529">in Philadelphia in the 19th century."</text>

  <line x1="400" y1="65" x2="260" y2="105" stroke="#6c757d" stroke-width="2" marker-end="url(#arrow2)"/>
  <line x1="500" y1="65" x2="640" y2="105" stroke="#6c757d" stroke-width="2" marker-end="url(#arrow2)"/>

  <rect x="60" y="110" width="330" height="80" rx="10" fill="#e8f3ec" stroke="#03a87c" stroke-width="2"/>
  <text x="225" y="135" text-anchor="middle" font-size="13" fill="#212529" font-weight="600">Dependency parser</text>
  <text x="225" y="155" text-anchor="middle" font-size="11" fill="#495057">subject: Arthur's Magazine (1844-1846)</text>
  <text x="225" y="172" text-anchor="middle" font-size="11" fill="#495057">predicate: publish</text>

  <rect x="510" y="110" width="330" height="80" rx="10" fill="#f2e9fb" stroke="#7832e2" stroke-width="2"/>
  <text x="675" y="135" text-anchor="middle" font-size="13" fill="#212529" font-weight="600">NER</text>
  <text x="675" y="155" text-anchor="middle" font-size="11" fill="#495057">Philadelphia → GPE (Place)</text>
  <text x="675" y="172" text-anchor="middle" font-size="11" fill="#495057">the 19th century → DATE</text>

  <line x1="225" y1="190" x2="400" y2="255" stroke="#6c757d" stroke-width="2" marker-end="url(#arrow2)"/>
  <line x1="675" y1="190" x2="500" y2="255" stroke="#6c757d" stroke-width="2" marker-end="url(#arrow2)"/>

  <rect x="240" y="260" width="420" height="110" rx="10" fill="#e8f3ec" stroke="#03a87c" stroke-width="3"/>
  <text x="450" y="285" text-anchor="middle" font-size="14" fill="#212529" font-weight="700">Triple / Fact</text>
  <text x="450" y="308" text-anchor="middle" font-size="12" fill="#212529">subject: Arthur's Magazine (1844-1846)</text>
  <text x="450" y="326" text-anchor="middle" font-size="12" fill="#212529">predicate: publish</text>
  <text x="450" y="344" text-anchor="middle" font-size="12" fill="#212529">attributes: Place: Philadelphia · Date: 19th century</text>
</svg>
