<svg viewBox="0 0 900 320" xmlns="http://www.w3.org/2000/svg" font-family="Helvetica, Arial, sans-serif">
  <defs>
    <marker id="arrow3" viewBox="0 0 10 10" refX="9" refY="5" markerWidth="7" markerHeight="7" orient="auto-start-reverse">
      <path d="M0,0 L10,5 L0,10 z" fill="#6c757d"/>
    </marker>
  </defs>

  <rect x="20" y="20" width="260" height="60" rx="8" fill="#fff" stroke="#03a87c" stroke-width="2"/>
  <text x="150" y="43" text-anchor="middle" font-size="11" fill="#212529">subject: Arthur's Magazine (1844-1846)</text>
  <text x="150" y="60" text-anchor="middle" font-size="11" fill="#212529">Place: Philadelphia · Date: 19th century</text>

  <rect x="20" y="130" width="260" height="60" rx="8" fill="#fff" stroke="#03a87c" stroke-width="2"/>
  <text x="150" y="153" text-anchor="middle" font-size="11" fill="#212529">subject: Arthur's Magazine (1844-1846)</text>
  <text x="150" y="170" text-anchor="middle" font-size="11" fill="#212529">Nationality: American</text>

  <rect x="20" y="240" width="260" height="60" rx="8" fill="#fff" stroke="#7832e2" stroke-width="2"/>
  <text x="150" y="263" text-anchor="middle" font-size="11" fill="#212529">subject: First for Women</text>
  <text x="150" y="280" text-anchor="middle" font-size="11" fill="#212529">Org: Bauer Media Group · Place: USA</text>

  <line x1="285" y1="50" x2="430" y2="140" stroke="#6c757d" stroke-width="2" marker-end="url(#arrow3)"/>
  <line x1="285" y1="160" x2="430" y2="160" stroke="#6c757d" stroke-width="2" marker-end="url(#arrow3)"/>
  <line x1="285" y1="270" x2="430" y2="190" stroke="#6c757d" stroke-width="2" marker-end="url(#arrow3)"/>

  <rect x="440" y="30" width="440" height="260" rx="10" fill="#e8f3ec" stroke="#03a87c" stroke-width="3"/>
  <text x="660" y="58" text-anchor="middle" font-size="14" fill="#212529" font-weight="700">Fact Table</text>

  <rect x="460" y="75" width="400" height="90" rx="6" fill="#fff" stroke="#03a87c" stroke-width="1.5"/>
  <text x="660" y="98" text-anchor="middle" font-size="12" fill="#212529" font-weight="600">Arthur's Magazine (1844-1846)</text>
  <text x="660" y="118" text-anchor="middle" font-size="11" fill="#495057">NORP: American</text>
  <text x="660" y="135" text-anchor="middle" font-size="11" fill="#495057">GPE: Philadelphia · DATE: the 19th century</text>

  <rect x="460" y="180" width="400" height="80" rx="6" fill="#fff" stroke="#7832e2" stroke-width="1.5"/>
  <text x="660" y="203" text-anchor="middle" font-size="12" fill="#212529" font-weight="600">First for Women</text>
  <text x="660" y="223" text-anchor="middle" font-size="11" fill="#495057">ORG: Bauer Media Group</text>
  <text x="660" y="240" text-anchor="middle" font-size="11" fill="#495057">GPE: USA · DATE: none found</text>
</svg>
